<?xml version="1.0" standalone="no"?><!DOCTYPE svg PUBLIC "-//W3C//DTD SVG 1.1//EN" "http://www.w3.org/Graphics/SVG/1.1/DTD/svg11.dtd"><svg t="1751112411929" class="icon" viewBox="0 0 1088 1024" version="1.1" xmlns="http://www.w3.org/2000/svg" p-id="4713" xmlns:xlink="http://www.w3.org/1999/xlink" width="272" height="256"><path d="M670.433789 448.969938h89.043478v76.322981H670.433789z" p-id="4714" data-spm-anchor-id="a313x.search_index.0.i15.3cd53a81q9lpEl" class="selected" fill="#F0B90B"></path><path d="M973.118012 57.242236c57.242236 0 108.124224 44.521739 108.124224 108.124224v254.409938c0 57.242236-44.521739 108.124224-108.124224 108.124223h-292.571428L616.944099 57.242236h356.173913z m0 38.161491h-305.291925l50.881988 381.614907h260.770186c19.080745 0 31.801242-6.360248 44.521739-19.080746 12.720497-12.720497 19.080745-25.440994 19.080745-44.521739v-254.409938c0-19.080745-6.360248-31.801242-19.080745-44.521739-12.720497-12.720497-31.801242-19.080745-50.881988-19.080745z" p-id="4715" data-spm-anchor-id="a313x.search_index.0.i13.3cd53a81q9lpEl" class="selected" fill="#F0B90B"></path><path d="M699.627329 0l57.242236 451.57764H407.055901C356.173913 451.57764 318.012422 407.055901 318.012422 356.173913V89.043478C318.012422 38.161491 356.173913 0 407.055901 0H699.627329z m171.726708 190.807453v38.161491h76.322982v108.124224h-25.440994v-12.720497h-50.881988v63.602484h-25.440994v-63.602484h-44.521739v12.720497h-25.440993V228.968944h69.962732V190.807453h25.440994zM546.981366 95.403727h-50.881987L426.136646 311.652174h44.521739l19.080745-57.242236h69.962733l12.720497 57.242236h44.521739L546.981366 95.403727zM845.913043 254.409938h-50.881987v44.521739h50.881987V254.409938z m76.322982 0h-50.881988v44.521739h50.881988V254.409938zM521.540373 127.204969c6.360248 25.440994 12.720497 50.881988 19.080745 69.962733l6.360248 25.440994h-50.881987l6.360248-25.440994c6.360248-19.080745 12.720497-44.521739 19.080746-69.962733z" p-id="4716" data-spm-anchor-id="a313x.search_index.0.i11.3cd53a81q9lpEl" class="selected" fill="#F0B90B"></path><path d="M254.409938 127.204969c6.360248 0 6.360248 0 12.720497 6.360248l25.440994 38.161491v12.720497c0 6.360248 0 6.360248-6.360249 6.360248h-6.360248c-31.801242 19.080745-63.602484 44.521739-89.043479 69.962733 44.521739 0 76.322981 25.440994 95.403727 63.602485 57.242236 127.204969 38.161491 241.689441-57.242236 298.931677-25.440994 12.720497-31.801242 25.440994-44.521739 57.242236-12.720497 31.801242-25.440994 50.881988-50.881988 63.602484 19.080745 38.161491 44.521739 69.962733 76.322982 95.403727 6.360248-19.080745 12.720497-38.161491 25.440994-50.881988 19.080745-25.440994 50.881988-38.161491 82.683229-38.16149 25.440994 0 57.242236 6.360248 82.68323 25.440994 63.602484 31.801242 108.124224 44.521739 127.204969 44.521739 19.080745 0 50.881988-6.360248 50.881988-31.801243 0-69.962733 38.161491-152.645963 203.52795-152.645962 25.440994 0 50.881988 0 82.68323 6.360248 6.360248 0 6.360248 0 12.720497 6.360249 6.360248-25.440994 12.720497-50.881988 12.720497-82.68323 0-6.360248 0-25.440994 31.801242-25.440994 6.360248 0 19.080745 0 31.801242 12.720497 6.360248 6.360248 6.360248 12.720497 6.360249 19.080745-12.720497 254.409938-222.608696 451.57764-477.018634 451.57764-260.770186 0-477.018634-216.248447-477.018634-477.018634 0-69.962733 12.720497-139.925466 44.52174-203.52795 0-6.360248 0-6.360248 6.360248-12.720497 38.161491-82.68323 101.763975-146.285714 178.086957-190.807453h6.360248C248.049689 127.204969 254.409938 127.204969 254.409938 127.204969z m534.260869 572.42236c-89.043478 0-133.565217 25.440994-133.565217 82.68323 0 63.602484-44.521739 101.763975-114.484472 101.763975-50.881988 0-101.763975-19.080745-165.36646-50.881987-19.080745-12.720497-38.161491-19.080745-50.881987-19.080746-12.720497 0-25.440994 6.360248-31.801242 12.720497-12.720497 12.720497-19.080745 31.801242-12.720497 50.881988 63.602484 38.161491 133.565217 57.242236 209.888198 57.242236 159.006211 0 305.291925-95.403727 375.254659-241.689441-31.801242 6.360248-57.242236 6.360248-76.322982 6.360248zM190.807453 330.732919c-19.080745 0-44.521739 12.720497-76.322981 38.161491-19.080745 50.881988-31.801242 114.484472-31.801242 171.726708 0 50.881988 6.360248 95.403727 25.440994 139.925466 6.360248-6.360248 6.360248-12.720497 12.720496-25.440994 12.720497-44.521739 31.801242-63.602484 69.962733-89.043478 63.602484-38.161491 76.322981-114.484472 31.801243-209.888199-6.360248-19.080745-12.720497-25.440994-31.801243-25.440994z" p-id="4717" data-spm-anchor-id="a313x.search_index.0.i8.3cd53a81q9lpEl" class="selected" fill="#F0B90B"></path></svg>